<svg xmlns="http://www.w3.org/2000/svg" version="1.1" width="450px" height="385px"
    style="shape-rendering:geometricPrecision; text-rendering:geometricPrecision; image-rendering:optimizeQuality; fill-rule:evenodd; clip-rule:evenodd"
    xmlns:xlink="http://www.w3.org/1999/xlink">
    <g>
        <path style="opacity:0.998" fill="#a1cf31"
            d="M 251.5,-0.5 C 255.5,-0.5 259.5,-0.5 263.5,-0.5C 268.75,5.29299 269.917,11.9597 267,19.5C 265.254,23.3267 263.254,26.9934 261,30.5C 237.95,51.6109 211.116,65.7776 180.5,73C 154.498,83.4968 130.165,96.8301 107.5,113C 77.773,137.293 64.4397,168.793 67.5,207.5C 45.5,206.167 23.5,206.167 1.5,207.5C 0.951844,205.374 0.285178,203.374 -0.5,201.5C -0.5,186.5 -0.5,171.5 -0.5,156.5C 3.18035,125.304 17.1803,99.8038 41.5,80C 67.3706,62.0247 95.704,49.0247 126.5,41C 155.847,33.6632 185.18,26.3299 214.5,19C 227.496,13.505 239.829,7.005 251.5,-0.5 Z" />
    </g>
    <g>
        <path style="opacity:0.998" fill="#a0ce31"
            d="M 353.5,205.5 C 339.167,205.5 324.833,205.5 310.5,205.5C 299.751,162.27 272.084,138.937 227.5,135.5C 182.385,138.95 154.385,162.616 143.5,206.5C 125.167,206.5 106.833,206.5 88.5,206.5C 92.5306,182.55 101.697,160.884 116,141.5C 132.463,123.858 151.629,110.025 173.5,100C 194.337,90.491 215.337,81.1577 236.5,72C 251.599,65.8762 264.765,57.0429 276,45.5C 281.583,31.0803 291.75,21.747 306.5,17.5C 313.877,19.88 318.544,24.88 320.5,32.5C 322.731,42.3457 321.897,52.0123 318,61.5C 317.162,71.8782 317.495,82.2116 319,92.5C 321.02,101.913 323.353,111.246 326,120.5C 334.064,142.026 341.731,163.693 349,185.5C 350.82,192.111 352.32,198.778 353.5,205.5 Z" />
    </g>
    <g>
        <path style="opacity:0.997" fill="#a1cf31"
            d="M 434.5,204.5 C 414.091,204.179 393.758,204.512 373.5,205.5C 366.573,176.641 357.073,148.641 345,121.5C 341.514,111.71 338.847,101.71 337,91.5C 336.135,81.4483 336.469,71.4483 338,61.5C 340.733,54.7665 345.4,50.0998 352,47.5C 360.089,50.9289 365.422,56.9289 368,65.5C 370.601,74.6366 373.601,83.6366 377,92.5C 386.576,110.659 396.91,128.326 408,145.5C 418.497,164.489 427.331,184.155 434.5,204.5 Z" />
    </g>
    <g>
        <path style="opacity:0.999" fill="#344606"
            d="M 353.5,205.5 C 354.887,207.877 355.721,210.543 356,213.5C 357.182,222.796 357.682,232.13 357.5,241.5C 342.211,242.302 326.877,242.802 311.5,243C 297.185,290.65 265.185,313.316 215.5,311C 177.045,303.286 153.045,280.453 143.5,242.5C 124.454,242.808 105.454,242.475 86.5,241.5C 85.9742,229.717 86.6409,218.05 88.5,206.5C 106.833,206.5 125.167,206.5 143.5,206.5C 154.385,162.616 182.385,138.95 227.5,135.5C 272.084,138.937 299.751,162.27 310.5,205.5C 324.833,205.5 339.167,205.5 353.5,205.5 Z" />
    </g>
    <g>
        <path style="opacity:1" fill="#a0ce30"
            d="M 222.5,166.5 C 247.393,166.191 265.227,177.191 276,199.5C 283.495,223.015 278.662,243.515 261.5,261C 239.655,276.657 217.655,276.991 195.5,262C 179.286,247.026 173.119,228.526 177,206.5C 184.006,183.766 199.173,170.432 222.5,166.5 Z" />
    </g>
    <g>
        <path style="opacity:0.986" fill="#344606"
            d="M 434.5,204.5 C 439.669,216.343 443.669,228.677 446.5,241.5C 423.5,242.833 400.5,242.833 377.5,241.5C 377.784,229.283 376.451,217.283 373.5,205.5C 393.758,204.512 414.091,204.179 434.5,204.5 Z" />
    </g>
    <g>
        <path style="opacity:0.994" fill="#344606"
            d="M 67.5,207.5 C 68.0868,218.824 68.4202,230.157 68.5,241.5C 50.5766,242.486 32.5766,242.819 14.5,242.5C 11.0327,238.833 8.53271,234.499 7,229.5C 4.53589,222.31 2.70255,214.977 1.5,207.5C 23.5,206.167 45.5,206.167 67.5,207.5 Z" />
    </g>
    <g>
        <path style="opacity:0.96" fill="#6d8b23"
            d="M 68.5,241.5 C 69.4302,247.733 70.5968,254.067 72,260.5C 74.5579,277.618 67.7245,283.451 51.5,278C 36.3614,269.027 24.0281,257.194 14.5,242.5C 32.5766,242.819 50.5766,242.486 68.5,241.5 Z" />
    </g>
    <g>
        <path style="opacity:0.985" fill="#6d8b23"
            d="M 86.5,241.5 C 105.454,242.475 124.454,242.808 143.5,242.5C 153.045,280.453 177.045,303.286 215.5,311C 265.185,313.316 297.185,290.65 311.5,243C 326.877,242.802 342.211,242.302 357.5,241.5C 353.168,276.662 337.835,306.162 311.5,330C 299.952,339.27 287.619,347.27 274.5,354C 252.764,363.183 230.431,364.849 207.5,359C 162.11,349.914 126.944,326.081 102,287.5C 94.0629,273.078 88.8962,257.745 86.5,241.5 Z" />
    </g>
    <g>
        <path style="opacity:0.982" fill="#6d8b23"
            d="M 377.5,241.5 C 400.5,242.833 423.5,242.833 446.5,241.5C 447.008,245.736 448.008,249.736 449.5,253.5C 449.5,265.167 449.5,276.833 449.5,288.5C 443.972,313.05 431.638,333.55 412.5,350C 402.652,357.754 392.319,364.754 381.5,371C 367.881,377.041 353.881,381.541 339.5,384.5C 324.833,384.5 310.167,384.5 295.5,384.5C 288.011,382.757 283.011,378.257 280.5,371C 281,369.5 281.5,368 282,366.5C 285.167,364 288.333,361.5 291.5,359C 313.329,347.485 333.163,333.318 351,316.5C 368.455,294.641 377.288,269.641 377.5,241.5 Z" />
    </g>
</svg>